<svg width="21" height="22" viewBox="0 0 21 22" fill="none" xmlns="http://www.w3.org/2000/svg">
<path d="M13.675 21V19.991C13.6792 19.7271 13.7869 19.4753 13.9748 19.29C14.1628 19.1046 14.416 19.0005 14.68 19H14.755C16.187 18.988 17.417 17.994 17.709 16.612L17.719 16.56L18.239 14L19.179 13.536C19.684 13.288 19.935 13.163 19.989 12.936C20.044 12.708 19.875 12.486 19.538 12.041L17.63 9.533C17.44 9.283 17.345 9.159 17.295 9.027C17.245 8.895 17.228 8.707 17.197 8.334C16.853 4.227 13.365 1 9.112 1C4.632 1 1 4.582 1 9C1 11.75 2.407 14.175 4.55 15.615M4.55 15.615V21M4.55 15.615C5.17569 16.038 5.85813 16.3703 6.577 16.602" stroke="#334155" stroke-width="1.5" stroke-linecap="round" stroke-linejoin="round"/>
<path d="M12.5 8L13.42 8.793C13.807 9.126 14 9.293 14 9.5C14 9.707 13.807 9.874 13.42 10.207L12.5 11M5.5 8L4.58 8.793C4.193 9.126 4 9.293 4 9.5C4 9.707 4.193 9.874 4.58 10.207L5.5 11M10 7L8 12" stroke="#334155" stroke-width="1.5" stroke-linecap="round" stroke-linejoin="round"/>
</svg>
