<svg width="18" height="22" viewBox="0 0 18 22" fill="none" xmlns="http://www.w3.org/2000/svg">
<path d="M6.5 20.9998H11.5M9 5.49983V3.49983M9 13.4998V11.4998M12.233 15.1198C13.7801 14.3859 15.0314 13.1474 15.7812 11.6078C16.5309 10.0683 16.7344 8.3195 16.3583 6.64896C15.9821 4.97841 15.0487 3.48559 13.7115 2.41599C12.3743 1.34639 10.7129 0.763672 9.0005 0.763672C7.28813 0.763672 5.62674 1.34639 4.28952 2.41599C2.9523 3.48559 2.01886 4.97841 1.64271 6.64896C1.26657 8.3195 1.4701 10.0683 2.21984 11.6078C2.96957 13.1474 4.22089 14.3859 5.768 15.1198V17.9998H12.233V15.1198Z" stroke="#334155" stroke-width="1.5"/>
<path d="M11.25 7V6.5C11.25 6.23478 11.1446 5.98043 10.9571 5.79289C10.7696 5.60536 10.5152 5.5 10.25 5.5H7.75C7.48478 5.5 7.23043 5.60536 7.04289 5.79289C6.85536 5.98043 6.75 6.23478 6.75 6.5V6.948C6.75004 7.17548 6.82764 7.39616 6.96999 7.5736C7.11234 7.75103 7.31094 7.87464 7.533 7.924L10.467 8.576C10.6891 8.62536 10.8877 8.74897 11.03 8.9264C11.1724 9.10384 11.25 9.32452 11.25 9.552V10.5C11.25 10.7652 11.1446 11.0196 10.9571 11.2071C10.7696 11.3946 10.5152 11.5 10.25 11.5H7.75C7.48478 11.5 7.23043 11.3946 7.04289 11.2071C6.85536 11.0196 6.75 10.7652 6.75 10.5V10" stroke="#334155" stroke-width="1.5"/>
</svg>
