<svg width="22" height="22" viewBox="0 0 22 22" fill="none" xmlns="http://www.w3.org/2000/svg">
<path d="M14.34 13.12C14.446 13.564 14.4993 14.024 14.5 14.5C14.5 16.0913 13.8679 17.6174 12.7426 18.7426C11.6174 19.8679 10.0913 20.5 8.5 20.5V15.7M14.34 13.12C16.2499 11.7288 17.8036 9.9055 18.8742 7.79908C19.9447 5.69267 20.5019 3.36287 20.5 1C18.1373 0.998298 15.8077 1.55549 13.7015 2.62607C11.5952 3.69665 9.77212 5.25026 8.381 7.16M14.34 13.12C12.6023 14.392 10.6106 15.2722 8.5 15.7M8.5 15.7C8.39667 15.7213 8.293 15.7413 8.189 15.76C7.28125 15.0412 6.45978 14.2198 5.741 13.312L5.8 13M8.381 7.16C7.49986 6.9516 6.58298 6.94532 5.69907 7.14164C4.81516 7.33797 3.98714 7.73179 3.27707 8.29362C2.567 8.85544 1.9933 9.57068 1.59895 10.3857C1.2046 11.2008 0.999835 12.0946 1 13H5.8M8.381 7.16C7.10914 8.89739 6.22793 10.8898 5.8 13M3.561 15.39C2.90293 15.8789 2.39128 16.5387 2.08156 17.2978C1.77183 18.0569 1.67584 18.8863 1.804 19.696C2.03133 19.732 2.26333 19.75 2.5 19.75C3.20131 19.7502 3.89295 19.5864 4.51973 19.2718C5.14651 18.9572 5.69109 18.5004 6.11 17.938M15.25 7.75C15.25 8.14783 15.092 8.52936 14.8107 8.81066C14.5294 9.09197 14.1478 9.25 13.75 9.25C13.3522 9.25 12.9706 9.09197 12.6893 8.81066C12.408 8.52936 12.25 8.14783 12.25 7.75C12.25 7.35218 12.408 6.97065 12.6893 6.68934C12.9706 6.40804 13.3522 6.25 13.75 6.25C14.1478 6.25 14.5294 6.40804 14.8107 6.68934C15.092 6.97065 15.25 7.35218 15.25 7.75Z" stroke="#334155" stroke-width="1.5" stroke-linecap="round" stroke-linejoin="round"/>
</svg>
